<?xml version="1.0" standalone="no"?>
<!DOCTYPE svg PUBLIC "-//W3C//DTD SVG 20010904//EN"
 "http://www.w3.org/TR/2001/REC-SVG-20010904/DTD/svg10.dtd">
<svg version="1.0" xmlns="http://www.w3.org/2000/svg"
 width="925.000000pt" height="925.000000pt" viewBox="0 0 925.000000 925.000000"
 preserveAspectRatio="xMidYMid meet">
<metadata>
Created by potrace 1.14, written by Peter Selinger 2001-2017
</metadata>
<g transform="translate(0.000000,925.000000) scale(0.100000,-0.100000)"
fill="#000000" stroke="none">
<path d="M2320 7467 c-22 -93 -78 -185 -170 -278 -75 -75 -150 -129 -612 -437
-290 -194 -532 -352 -538 -352 -15 0 -643 476 -714 541 -57 52 -127 142 -162
209 -10 19 -30 80 -44 135 -23 85 -30 100 -48 103 l-22 3 0 -436 0 -436 21 3
c17 2 25 16 39 68 22 88 34 107 78 126 50 21 111 12 187 -26 60 -30 516 -372
516 -387 0 -13 -489 -341 -556 -374 -135 -65 -217 -19 -239 134 -6 37 -11 47
-27 47 -19 0 -19 -13 -19 -615 0 -608 0 -615 20 -615 11 0 20 3 21 8 0 4 2 16
4 27 2 11 6 38 10 59 19 122 137 253 370 407 88 58 321 213 518 344 l357 238
58 -45 c31 -24 181 -139 333 -255 404 -310 530 -448 594 -653 13 -41 27 -96
30 -122 5 -39 10 -48 26 -48 16 0 19 7 20 53 1 61 0 834 0 860 -1 10 -9 17
-21 17 -14 0 -21 -9 -26 -37 -15 -82 -43 -139 -78 -158 -43 -23 -118 -17 -180
16 -55 29 -616 451 -613 461 3 11 575 396 629 424 30 15 64 24 93 24 39 0 50
-5 84 -39 32 -32 42 -52 55 -109 9 -39 16 -87 16 -106 0 -29 4 -36 20 -36 16
0 20 7 21 33 1 42 1 1215 0 1247 -1 18 -7 26 -20 27 -15 1 -22 -9 -31 -50z"/>
<path d="M6200 7266 c-41 -25 -79 -49 -85 -53 -5 -5 -25 -16 -42 -23 -18 -8
-33 -19 -33 -23 0 -5 -4 -6 -9 -3 -5 3 -14 -1 -21 -9 -7 -8 -17 -15 -22 -15
-5 0 -29 -13 -53 -30 -24 -16 -46 -30 -50 -30 -3 0 -23 -11 -44 -24 -21 -14
-41 -22 -45 -19 -3 3 -8 -2 -12 -11 -3 -9 -10 -14 -14 -11 -4 3 -13 -2 -20
-10 -7 -8 -19 -15 -26 -15 -12 0 -12 -4 -2 -20 7 -11 20 -20 28 -20 9 0 20 -4
26 -10 11 -11 74 8 74 22 0 4 4 8 9 8 13 0 255 142 259 152 2 4 7 6 12 3 5 -3
14 1 22 8 7 7 28 20 46 28 17 7 32 17 32 21 0 5 7 8 15 8 8 0 15 5 15 11 0 5
4 8 9 4 5 -3 16 2 24 10 9 8 23 15 32 15 9 0 13 5 10 10 -3 6 1 10 9 10 31 0
24 17 -15 38 -23 12 -44 22 -47 22 -4 0 -41 -20 -82 -44z"/>
<path d="M6360 7213 c0 -9 -3 -14 -6 -10 -3 3 -24 -5 -45 -19 -21 -13 -43 -24
-49 -24 -5 0 -10 -4 -10 -10 0 -5 -5 -10 -11 -10 -6 0 -38 -16 -70 -36 -32
-19 -61 -34 -65 -34 -4 1 -10 -2 -13 -7 -3 -5 -26 -20 -51 -34 -25 -13 -47
-26 -50 -29 -3 -3 -18 -12 -35 -20 -16 -8 -36 -21 -43 -28 -8 -7 -18 -10 -23
-7 -5 4 -9 2 -9 -4 0 -5 -10 -13 -22 -17 -13 -4 -28 -14 -34 -22 -8 -10 -10
-495 -10 -1673 1 -1100 -2 -1659 -9 -1659 -6 0 -6 -3 0 -8 6 -4 10 -46 9 -99
0 -55 3 -93 9 -93 5 0 32 14 59 30 26 17 53 30 58 30 6 0 10 4 10 9 0 5 12 14
28 20 34 13 86 44 90 54 2 4 9 7 16 7 8 0 25 9 38 20 14 10 28 16 32 13 3 -3
6 -1 6 5 0 7 7 12 15 12 8 0 15 5 15 11 0 6 7 9 15 5 9 -3 15 0 15 9 0 8 8 15
18 15 10 0 28 9 40 20 12 11 28 20 37 20 8 0 15 5 15 10 0 6 6 10 14 10 8 0
22 7 30 16 15 14 16 113 16 970 0 963 0 960 -32 955 -5 0 -8 2 -8 7 0 4 -17
16 -37 27 -21 11 -40 22 -43 25 -3 3 -23 14 -45 26 -52 27 -89 48 -95 54 -3 3
-22 14 -42 25 -21 11 -38 23 -38 28 0 4 -4 6 -9 3 -7 -5 -20 3 -69 44 -9 8 -9
16 -2 30 7 13 7 21 0 25 -7 5 -8 11 -1 19 5 6 6 17 2 24 -6 11 -7 49 -1 77 1
6 1 12 0 15 -7 19 -5 50 4 50 6 0 5 4 -2 9 -8 4 -14 11 -15 14 -3 10 85 68
168 111 22 12 43 25 46 29 11 14 70 19 85 6 20 -16 75 -48 97 -55 9 -4 17 -11
17 -16 0 -5 5 -6 10 -3 6 4 10 188 10 520 0 447 -2 514 -15 519 -10 3 -15 -1
-15 -11z m-167 -2003 c-1 -3 2 -22 6 -42 5 -21 6 -38 2 -38 -7 0 -5 -166 3
-186 3 -7 1 -16 -4 -19 -5 -3 -6 -15 -2 -26 5 -11 5 -44 2 -74 -3 -29 -3 -61
0 -69 3 -9 4 -34 2 -54 -3 -33 -10 -42 -49 -67 -25 -15 -51 -28 -59 -28 -7 0
-12 -4 -11 -8 1 -4 -1 -6 -4 -5 -4 0 -17 -8 -30 -19 -13 -12 -19 -14 -14 -5 8
13 6 13 -8 2 -14 -12 -17 -11 -21 10 -3 12 -4 138 -3 279 2 278 2 276 60 300
18 7 36 19 40 26 4 7 17 13 27 13 11 0 20 5 20 11 0 6 10 9 23 7 12 -2 21 -5
20 -8z"/>
<path d="M6119 5150 c-12 -13 -16 -32 -13 -74 3 -43 0 -55 -9 -50 -8 5 -7 2 2
-9 10 -13 11 -20 2 -30 -6 -8 -8 -17 -4 -21 12 -12 13 -67 1 -60 -7 5 -8 2 -2
-7 5 -8 10 -25 12 -37 2 -17 -1 -22 -10 -16 -9 5 -9 2 1 -10 13 -15 13 -19 0
-27 -8 -5 -9 -9 -4 -9 6 0 11 -16 12 -36 1 -54 34 -67 61 -24 9 15 9 18 -1 14
-8 -3 -13 3 -13 16 0 11 4 20 9 20 5 0 4 7 -3 15 -12 14 -7 19 15 16 6 -1 2 5
-7 12 -13 10 -15 16 -6 25 8 8 8 12 2 12 -6 0 -11 7 -11 15 0 8 5 15 11 15 6
0 5 5 -2 12 -9 9 -8 16 5 30 14 16 15 18 1 13 -12 -5 -15 0 -13 19 2 14 6 30
10 35 3 6 1 11 -6 11 -8 0 -8 4 1 15 10 12 10 15 0 15 -10 0 -10 3 0 15 10 12
10 15 0 15 -10 0 -10 3 -1 14 9 11 9 16 0 21 -8 6 -7 10 2 16 11 7 11 9 1 9
-7 0 -11 4 -8 9 11 17 -19 17 -35 1z"/>
<path d="M6042 5100 c-7 -11 -8 -20 -4 -20 11 0 9 -40 -2 -59 -6 -10 -5 -12 3
-7 11 7 11 -2 1 -49 -1 -5 -1 -12 0 -15 8 -18 5 -66 -4 -72 -7 -5 -7 -8 3 -8
11 0 11 -3 1 -15 -7 -8 -8 -15 -3 -15 11 0 11 -45 0 -56 -4 -4 -2 -13 4 -20 6
-8 9 -20 6 -28 -4 -9 -1 -13 6 -10 9 3 12 54 12 193 0 104 -3 192 -6 195 -2 3
-10 -4 -17 -14z"/>
<path d="M6070 4693 c-9 -2 -21 -13 -29 -24 -7 -12 -8 -18 -2 -14 6 3 11 0 11
-9 0 -8 -6 -17 -12 -20 -12 -4 30 0 42 4 3 2 9 2 13 1 5 -1 6 3 2 8 -3 6 5 13
19 17 20 5 23 9 13 18 -16 16 -38 23 -57 19z"/>
<path d="M5687 5188 c1 -964 2 -1758 2 -1765 2 -21 59 -55 82 -48 13 4 17 10
11 14 -7 4 -10 128 -9 386 0 209 -2 386 -6 392 -4 6 -1 14 5 16 10 4 9 8 -2
16 -14 10 -7 16 14 12 5 -1 5 4 -1 11 -16 19 -16 118 0 118 8 0 8 3 -2 9 -8 5
-12 18 -8 30 3 12 1 24 -5 27 -6 4 -5 10 3 15 12 8 11 11 -1 19 -14 9 -7 15
14 11 5 -1 5 4 -1 11 -16 19 -16 118 0 118 8 0 8 3 -2 9 -8 5 -12 18 -8 30 3
12 1 24 -5 27 -6 4 -5 10 3 15 12 8 11 11 -1 19 -14 9 -7 15 14 11 5 -1 5 4
-1 11 -16 19 -16 118 0 118 8 0 8 3 -2 9 -8 5 -12 18 -8 30 3 12 1 24 -5 27
-6 4 -5 10 3 15 12 8 11 11 -1 19 -14 9 -7 15 14 11 5 -1 5 4 -1 11 -16 19
-16 118 0 118 8 0 8 3 -2 9 -8 5 -12 18 -8 30 3 12 1 24 -5 27 -6 4 -5 10 3
15 12 8 11 11 -1 19 -14 9 -7 15 14 11 5 -1 4 4 -2 11 -6 8 -10 36 -10 64 1
27 -1 55 -5 61 -4 6 -1 14 5 16 10 4 10 8 -1 15 -11 8 -10 12 5 21 11 6 14 11
6 11 -9 0 -13 11 -11 33 2 18 0 37 -4 44 -4 6 -1 14 5 16 10 4 9 8 -2 16 -14
10 -7 16 14 12 5 -1 5 4 -1 11 -16 19 -16 118 0 118 8 0 8 3 -2 9 -8 5 -12 18
-8 30 3 12 1 24 -5 27 -6 4 -5 10 3 15 12 8 11 11 -1 19 -14 9 -7 15 14 11 5
-1 5 4 -1 11 -16 19 -16 118 0 118 8 0 8 3 -2 9 -8 5 -12 18 -8 30 3 12 1 24
-5 27 -6 4 -5 10 3 15 12 8 11 11 -1 19 -14 9 -7 15 14 11 5 -1 5 4 -1 11 -16
19 -16 118 0 118 8 0 8 3 -2 9 -8 5 -12 18 -8 30 3 12 1 24 -5 27 -6 4 -5 10
3 15 12 8 11 11 -1 19 -14 9 -7 15 14 11 5 -1 5 4 -1 11 -16 19 -16 118 0 118
8 0 8 3 -2 9 -8 5 -12 18 -8 30 3 12 1 24 -5 27 -6 4 -5 10 3 15 12 8 11 11
-1 19 -14 9 -7 15 14 11 5 -1 4 4 -2 11 -6 8 -10 36 -10 64 1 27 -1 55 -5 61
-4 6 -1 14 5 16 10 4 10 8 -1 15 -11 8 -10 12 5 21 11 6 14 11 6 11 -9 0 -13
11 -11 33 2 18 0 37 -4 44 -4 6 -1 14 5 16 10 4 10 8 -1 15 -7 5 -9 12 -5 15
11 6 10 59 0 75 -4 7 -3 12 2 12 25 0 2 37 -35 57 -23 13 -43 23 -45 23 -2 0
-2 -789 -1 -1752z"/>
<path d="M8449 6808 c-8 -4 -65 -37 -128 -73 -62 -36 -118 -65 -122 -65 -5 0
-9 -4 -9 -10 0 -5 -5 -10 -10 -10 -6 0 -28 -11 -51 -25 -22 -14 -44 -23 -49
-20 -6 4 -10 0 -10 -7 0 -7 -10 -18 -23 -24 -42 -21 -112 -59 -117 -64 -3 -3
-22 -14 -42 -25 -21 -11 -38 -23 -38 -27 0 -5 -9 -8 -20 -8 -11 0 -20 -4 -20
-9 0 -5 -11 -12 -24 -15 -14 -3 -31 -12 -38 -19 -14 -12 -37 -26 -120 -70 -26
-14 -44 -28 -41 -31 4 -3 -3 -6 -15 -6 -12 0 -22 -4 -22 -8 0 -5 -16 -14 -35
-22 -19 -8 -35 -17 -35 -20 0 -4 -19 -15 -42 -26 -24 -10 -45 -21 -48 -25 -7
-9 -88 -55 -132 -76 -21 -10 -38 -21 -38 -26 0 -4 -4 -5 -10 -2 -5 3 -10 1
-10 -5 0 -6 -4 -9 -9 -6 -5 3 -12 -1 -15 -10 -3 -8 -10 -12 -16 -9 -5 3 -10 2
-10 -4 0 -6 -11 -13 -25 -17 -14 -3 -25 -10 -25 -15 0 -5 -5 -9 -11 -9 -6 0
-23 -9 -39 -20 -15 -11 -29 -17 -32 -14 -3 2 -11 -2 -18 -11 -7 -8 -17 -15
-22 -15 -5 0 -16 -7 -25 -15 -8 -8 -19 -13 -24 -9 -5 3 -12 -2 -15 -10 -3 -9
-12 -16 -20 -16 -8 0 -14 -5 -14 -11 0 -6 -9 -9 -20 -6 -11 3 -20 1 -20 -5 0
-8 -75 27 -90 42 -3 3 -18 12 -35 20 -16 8 -32 17 -35 21 -3 3 -22 14 -43 25
-73 36 -77 39 -77 47 0 4 -4 5 -10 2 -5 -3 -10 -1 -10 4 0 6 -6 11 -14 11 -7
0 -19 7 -26 15 -6 8 -15 14 -18 12 -4 -1 -18 6 -32 15 -37 24 -110 65 -150 85
-19 10 -37 21 -40 24 -12 15 -50 29 -50 19 0 -5 -6 -10 -13 -10 -7 0 -29 -11
-50 -25 -20 -14 -37 -23 -37 -20 0 4 -7 -1 -16 -9 -8 -9 -22 -16 -30 -16 -8 0
-14 -4 -14 -10 0 -5 -8 -10 -17 -10 -17 -1 33 -38 82 -61 11 -5 38 -21 60 -34
22 -14 54 -32 70 -41 17 -8 44 -23 60 -33 86 -52 122 -72 138 -78 9 -3 17 -9
17 -14 0 -5 10 -9 22 -9 12 0 19 -3 15 -6 -5 -6 69 -50 153 -92 35 -17 51 -27
73 -48 6 -6 20 -9 31 -6 14 4 17 2 11 -9 -5 -8 3 -4 17 9 13 12 29 22 34 22 6
0 25 11 44 25 19 14 41 25 50 25 8 0 23 9 33 20 9 11 24 20 32 20 8 0 15 5 15
10 0 6 7 10 15 10 8 0 15 5 15 12 0 6 3 8 7 5 3 -4 15 0 25 10 10 9 18 13 18
9 0 -4 15 4 33 17 17 13 40 27 50 30 9 4 17 11 17 17 0 6 5 8 11 4 6 -3 15 -1
19 5 4 7 16 13 28 14 11 0 19 4 17 7 -2 3 30 24 71 45 40 22 74 44 74 48 0 5
5 5 10 2 6 -3 10 -2 10 2 0 5 21 20 48 33 26 14 49 28 50 33 2 4 8 5 13 1 5
-3 12 2 15 10 3 9 15 16 25 16 10 0 19 5 19 10 0 6 9 10 19 10 10 0 22 7 25
16 3 8 10 12 16 9 5 -3 10 -2 10 2 0 5 25 21 55 37 30 15 57 32 61 37 3 5 10
7 15 4 5 -4 12 1 15 9 3 9 17 16 31 16 13 0 22 4 18 9 -3 5 5 13 17 17 13 4
42 19 64 35 23 16 44 26 46 23 3 -2 11 2 18 11 7 8 19 15 26 15 8 0 14 5 14
10 0 6 5 10 11 10 6 0 23 9 39 20 15 11 30 17 34 13 3 -3 6 -2 6 4 0 6 12 16
28 23 46 19 72 34 72 42 0 5 5 8 11 8 6 0 23 9 37 19 15 10 29 19 32 18 3 0
23 11 45 25 22 13 56 33 75 44 19 10 43 25 53 33 9 8 17 11 17 7 0 -4 7 0 16
9 9 9 23 14 31 11 8 -3 11 -2 8 3 -3 5 4 13 16 16 l21 7 -21 19 c-11 10 -27
19 -36 19 -8 0 -15 3 -15 8 0 13 -46 29 -61 20z"/>
<path d="M8565 6698 c-11 -6 -23 -16 -27 -22 -4 -6 -8 -8 -8 -4 0 4 -30 -10
-66 -32 -36 -22 -70 -37 -76 -34 -7 4 -8 2 -4 -4 4 -7 -8 -18 -34 -29 -22 -10
-40 -21 -40 -25 0 -5 -5 -8 -10 -8 -6 0 -28 -11 -50 -25 -22 -14 -40 -22 -40
-18 0 4 -6 -2 -14 -12 -8 -11 -19 -16 -30 -12 -11 4 -15 3 -11 -4 4 -6 -2 -13
-14 -16 -12 -3 -21 -9 -21 -14 0 -5 -9 -9 -21 -9 -11 0 -17 -4 -14 -10 3 -5
-3 -10 -14 -10 -12 0 -21 -3 -21 -8 0 -4 -12 -13 -27 -19 -16 -7 -53 -28 -83
-48 -30 -19 -60 -35 -67 -35 -7 0 -13 -4 -13 -9 0 -5 -11 -12 -25 -15 -14 -4
-25 -11 -25 -17 0 -6 -4 -7 -10 -4 -5 3 -10 2 -10 -3 0 -4 -16 -14 -35 -22
-19 -8 -35 -16 -35 -19 0 -3 -18 -15 -40 -25 -22 -11 -40 -23 -40 -28 0 -4 -9
-8 -20 -8 -11 0 -20 -4 -20 -8 0 -4 -12 -13 -27 -20 -35 -15 -66 -34 -86 -51
-9 -7 -22 -9 -28 -5 -7 4 -9 3 -6 -2 3 -5 -20 -23 -51 -39 -31 -16 -59 -32
-62 -35 -3 -3 -16 -11 -29 -18 -71 -40 -99 -57 -126 -73 -16 -11 -37 -22 -45
-26 -8 -4 -39 -22 -69 -39 -30 -18 -59 -30 -64 -27 -6 3 -7 2 -4 -4 4 -6 -11
-18 -33 -28 -22 -10 -40 -22 -40 -28 0 -5 -9 -7 -20 -4 -11 3 -18 0 -17 -7 1
-6 -4 -10 -11 -8 -7 1 -15 -5 -18 -13 -4 -8 -15 -15 -25 -15 -10 0 -19 -4 -19
-8 0 -5 -10 -13 -21 -18 -20 -9 -22 -17 -20 -114 1 -58 4 -106 6 -108 6 -6 65
22 65 30 0 5 9 8 21 8 11 0 18 3 15 8 -2 4 16 16 40 27 24 11 44 22 44 25 0 4
16 12 35 20 19 8 35 17 35 22 0 4 6 8 14 8 7 0 19 7 26 15 7 8 16 12 21 9 5
-3 12 2 15 10 3 9 10 14 14 11 5 -3 16 2 24 11 9 8 16 13 16 9 0 -4 7 1 16 9
8 9 24 16 35 16 11 0 18 4 15 8 -3 5 25 24 62 43 37 19 69 36 72 39 12 12 60
40 60 35 0 -4 7 1 16 9 8 9 20 14 25 11 5 -4 9 -2 9 2 0 5 17 17 38 28 20 11
39 22 42 25 3 3 19 12 35 20 17 8 32 17 35 20 8 8 63 40 108 61 23 12 42 26
42 31 0 6 7 8 15 4 8 -3 15 -1 15 4 0 5 17 17 38 27 20 9 42 24 49 33 7 8 13
12 13 7 0 -4 18 4 40 18 22 14 44 25 50 25 5 0 10 4 10 9 0 5 8 11 18 15 9 3
38 18 64 33 130 76 268 153 271 151 1 -2 16 9 32 24 16 15 32 25 37 22 4 -3 8
0 8 7 0 7 3 9 6 6 4 -4 19 2 33 12 14 10 45 29 68 42 24 13 43 27 43 31 1 4 5
21 10 38 5 16 5 30 2 30 -9 0 -6 75 3 89 3 5 1 12 -4 15 -5 3 -7 15 -4 26 6
22 -3 25 -32 8z"/>
<path d="M6009 6073 c-1 -10 -1 -60 -1 -112 -1 -77 2 -95 16 -103 9 -5 14 -13
11 -18 -3 -4 4 -6 15 -3 14 4 20 0 20 -11 0 -10 4 -15 9 -11 5 3 17 -2 25 -11
9 -8 16 -13 16 -10 0 3 22 -8 49 -24 26 -17 53 -30 60 -30 6 0 11 -5 11 -11 0
-5 5 -7 10 -4 6 3 10 -1 10 -10 0 -10 5 -13 12 -9 6 4 16 0 22 -8 6 -8 14 -16
19 -16 9 -2 49 -23 97 -52 19 -11 43 -23 53 -26 9 -4 17 -10 17 -15 0 -5 9 -9
20 -9 11 0 20 -4 20 -10 0 -5 7 -10 15 -10 8 0 15 -4 15 -10 0 -5 4 -10 10
-10 5 0 44 -20 86 -45 72 -43 104 -50 104 -25 0 6 -6 8 -12 4 -10 -6 -10 -4
-3 7 12 17 13 39 1 58 -6 9 -5 12 1 8 11 -7 10 88 -2 116 -4 9 -13 17 -21 17
-8 0 -14 3 -14 8 0 4 -18 15 -40 25 -22 9 -40 21 -40 27 0 5 -3 9 -7 8 -8 -2
-36 12 -103 51 -19 12 -50 29 -67 38 -18 9 -33 21 -33 25 0 5 -4 6 -10 3 -5
-3 -10 -1 -10 5 0 6 -4 9 -9 6 -5 -3 -14 1 -21 9 -7 8 -18 15 -24 15 -7 0 -22
9 -34 20 -12 12 -22 17 -22 13 0 -4 -6 -1 -13 8 -7 9 -16 16 -20 16 -13 1
-102 47 -105 56 -2 4 -10 7 -18 7 -8 0 -14 5 -14 10 0 6 -5 10 -10 10 -6 0
-28 11 -50 25 -36 22 -40 23 -41 8z"/>
<path d="M28 4762 c-17 -3 -18 -38 -18 -557 0 -536 1 -554 19 -552 15 1 20 12
25 57 9 76 48 151 94 184 75 52 97 53 1027 54 473 0 889 -4 924 -8 35 -5 87
-21 117 -35 45 -22 57 -34 78 -78 23 -47 35 -99 36 -152 0 -13 7 -21 20 -22
18 -2 20 5 20 50 1 85 1 989 1 1025 -1 25 -5 32 -21 32 -16 0 -20 -7 -20 -33
0 -58 -29 -136 -66 -177 -72 -79 -11 -75 -1074 -75 l-945 0 -66 32 c-78 39
-102 75 -121 184 -11 62 -16 74 -30 71z"/>
<path d="M7066 4466 c-16 -33 -6 -66 19 -66 8 0 15 -3 15 -8 0 -4 15 -14 33
-21 17 -8 38 -21 45 -28 7 -7 20 -13 28 -13 8 0 14 -4 14 -9 0 -8 27 -19 41
-17 4 1 16 -7 27 -17 21 -19 60 -43 119 -73 18 -9 30 -21 26 -27 -3 -6 -1 -7
5 -3 6 4 29 -5 51 -19 23 -14 45 -25 51 -25 5 0 10 -4 10 -8 0 -5 16 -14 35
-22 19 -8 35 -16 35 -19 0 -4 15 -12 33 -20 17 -8 34 -17 37 -20 3 -4 18 -12
34 -19 23 -10 31 -11 37 0 4 6 6 15 4 18 -2 3 6 7 17 7 11 1 22 4 24 6 10 9
-9 37 -29 43 -12 3 -30 13 -39 22 -10 8 -18 11 -18 6 0 -5 -7 -1 -15 10 -7 10
-18 15 -24 11 -6 -3 -11 1 -11 9 0 9 -7 16 -15 16 -18 0 -51 18 -79 43 -11 9
-27 17 -37 17 -9 0 -19 7 -23 15 -3 8 -9 14 -13 13 -4 -1 -40 17 -80 40 -39
23 -76 42 -81 42 -6 0 -13 7 -16 16 -4 9 -9 14 -13 10 -3 -3 -15 1 -25 11 -10
9 -18 13 -18 9 0 -4 -15 3 -32 16 -43 30 -89 57 -110 64 -10 4 -18 10 -18 13
0 20 -31 4 -44 -23z"/>
<path d="M7104 4255 l-1 -82 36 -19 c20 -10 38 -21 41 -25 12 -13 40 -18 41
-6 1 20 1 131 0 144 -1 6 -20 22 -43 35 -76 44 -74 46 -74 -47z"/>
<path d="M7255 4230 c-3 -5 -1 -10 4 -10 6 0 11 5 11 10 0 6 -2 10 -4 10 -3 0
-8 -4 -11 -10z"/>
<path d="M7256 4164 c-8 -20 -8 -24 2 -24 4 0 8 9 9 20 2 24 -3 26 -11 4z"/>
<path d="M7853 4165 c-8 -9 -9 -15 0 -24 6 -6 7 -11 2 -11 -6 0 -8 -22 -7 -50
4 -51 4 -51 -38 -54 -28 -2 -22 -34 9 -52 33 -19 34 -23 31 -125 -1 -49 2 -59
22 -73 12 -9 31 -16 41 -16 10 0 15 -4 12 -10 -3 -5 0 -10 9 -10 8 0 16 -4 18
-8 2 -4 26 -20 55 -35 l52 -27 3 185 c3 187 0 205 -34 218 -10 3 -18 11 -18
17 0 6 -4 9 -9 6 -4 -3 -29 8 -55 24 -26 17 -51 30 -56 30 -5 0 -13 6 -17 14
-6 11 -10 11 -20 1z m71 -58 c14 -8 23 -17 19 -20 -3 -4 6 -7 21 -7 16 0 25
-4 21 -10 -3 -5 3 -10 14 -10 11 0 22 -4 25 -8 4 -7 7 -106 5 -162 0 -8 2 -25
5 -37 3 -13 0 -23 -6 -23 -7 0 -7 -4 1 -13 6 -8 8 -17 4 -20 -3 -4 -6 -22 -5
-41 1 -26 -3 -33 -16 -32 -9 0 -24 8 -32 16 -8 8 -36 26 -63 40 l-48 25 2 150
c0 82 3 153 5 157 7 11 18 10 48 -5z"/>
<path d="M7955 3937 c0 -86 1 -93 20 -95 20 -1 21 4 19 81 -2 110 -2 107 -21
107 -16 0 -18 -11 -18 -93z"/>
<path d="M7948 3803 c7 -3 16 -2 19 1 4 3 -2 6 -13 5 -11 0 -14 -3 -6 -6z"/>
<path d="M7912 4175 c3 -3 16 -8 28 -10 12 -2 20 -1 16 2 -4 4 -16 8 -28 10
-12 2 -19 1 -16 -2z"/>
<path d="M7970 4150 c0 -5 5 -10 11 -10 5 0 7 5 4 10 -3 6 -8 10 -11 10 -2 0
-4 -4 -4 -10z"/>
<path d="M8090 3998 c0 -19 2 -20 10 -8 13 19 13 30 0 30 -5 0 -10 -10 -10
-22z"/>
<path d="M8093 3895 c0 -33 2 -45 4 -27 2 18 2 45 0 60 -2 15 -4 0 -4 -33z"/>
<path d="M8092 3806 c1 -14 5 -23 9 -20 7 4 0 44 -7 44 -2 0 -3 -11 -2 -24z"/>
<path d="M8093 3725 c0 -27 2 -38 4 -22 2 15 2 37 0 50 -2 12 -4 0 -4 -28z"/>
<path d="M265 3500 c-112 -13 -187 -19 -222 -20 l-33 0 0 -839 c0 -746 2 -840
15 -845 18 -7 20 -2 34 81 14 86 34 124 82 155 77 50 90 50 1061 50 802 0 912
-2 961 -16 100 -29 148 -91 162 -209 8 -61 13 -70 34 -58 10 7 13 117 13 554
0 300 -3 550 -6 556 -16 25 -34 -4 -40 -62 -12 -121 -83 -202 -196 -226 -32
-7 -207 -11 -471 -11 l-420 0 3 278 c3 242 6 282 22 320 26 61 97 119 168 139
49 14 58 20 58 40 l0 23 -337 -3 c-336 -2 -338 -2 -341 -23 -3 -19 3 -23 45
-29 108 -15 167 -61 217 -165 l31 -65 3 -257 3 -258 -486 0 -486 0 3 303 c3
284 5 305 26 357 34 87 86 132 205 179 41 17 57 29 57 42 0 21 -34 23 -165 9z"/>
<path d="M2900 2573 c1 -5 24 -19 52 -33 29 -14 61 -37 72 -52 19 -27 19 -30
2 -200 -10 -95 -19 -189 -22 -208 -2 -19 -8 -72 -14 -118 -13 -113 -38 -166
-84 -183 -20 -7 -36 -17 -36 -21 0 -4 63 -8 140 -8 87 0 140 4 140 10 0 6 -7
10 -15 10 -31 0 -65 24 -81 58 -14 29 -15 53 -9 151 4 64 8 123 10 131 1 8 6
60 9 115 7 93 14 157 19 162 1 1 62 -137 135 -306 151 -347 148 -342 161 -322
5 8 67 158 138 333 70 174 130 318 133 318 3 0 7 -17 8 -37 5 -80 23 -320 27
-363 3 -25 6 -78 7 -119 2 -69 0 -75 -26 -97 -15 -13 -36 -24 -47 -24 -10 0
-19 -4 -19 -10 0 -12 362 -14 374 -3 4 4 -8 13 -26 19 -58 19 -67 49 -83 259
-4 44 -8 96 -10 115 -2 19 -10 109 -16 199 l-13 164 28 23 c15 13 38 24 52 24
13 0 24 5 24 10 0 16 -267 13 -273 -2 -52 -133 -211 -515 -216 -520 -4 -4 -60
114 -125 262 l-118 270 -149 0 c-82 0 -149 -3 -149 -7z"/>
<path d="M3995 2570 c3 -5 16 -10 29 -10 30 0 82 -57 225 -247 l121 -162 0
-155 c0 -85 -4 -166 -10 -181 -9 -25 -66 -58 -82 -49 -5 3 -8 0 -8 -5 0 -7 63
-11 190 -11 120 0 190 4 190 10 0 6 -11 10 -24 10 -13 0 -34 9 -47 19 -24 19
-24 23 -27 212 l-3 192 85 127 c46 70 99 144 117 164 37 42 96 76 134 76 14 0
25 5 25 10 0 6 -59 10 -156 10 -101 0 -153 -3 -149 -10 3 -5 14 -10 24 -10 42
0 54 -56 25 -113 -27 -51 -135 -209 -140 -204 -3 2 -45 62 -94 133 -98 141
-108 171 -60 181 79 15 24 23 -165 23 -135 0 -204 -3 -200 -10z"/>
<path d="M4940 2570 c0 -5 14 -10 30 -10 39 0 70 -31 71 -72 6 -121 4 -629 -2
-658 -9 -41 -32 -60 -71 -60 -15 0 -28 -5 -28 -11 0 -7 87 -9 293 -6 327 4
359 9 457 75 106 72 161 178 162 317 1 129 -29 211 -110 297 -54 58 -135 102
-224 123 -75 18 -578 22 -578 5z m521 -67 c130 -58 199 -183 200 -359 0 -119
-30 -204 -96 -269 -58 -59 -102 -75 -199 -75 -74 0 -121 18 -131 50 -9 29 -9
655 0 670 12 20 171 7 226 -17z"/>
<path d="M6261 2569 c-24 -5 -71 -21 -105 -37 -251 -117 -300 -489 -90 -682
158 -146 444 -144 602 4 125 117 160 333 80 504 -27 57 -109 142 -167 172 -84
43 -218 59 -320 39z m199 -61 c56 -29 104 -98 121 -176 32 -144 9 -384 -45
-465 -29 -44 -98 -77 -161 -77 -108 0 -161 36 -212 145 -27 58 -28 65 -28 230
0 152 2 175 21 216 27 58 80 118 119 135 48 21 134 17 185 -8z"/>
<path d="M7191 2564 c-236 -61 -360 -295 -284 -539 59 -189 234 -299 448 -282
249 20 398 197 382 454 -8 140 -84 265 -196 327 -96 52 -239 68 -350 40z m219
-56 c56 -29 104 -98 122 -176 31 -141 8 -384 -46 -465 -29 -44 -98 -77 -161
-77 -108 0 -161 36 -212 145 -27 58 -28 65 -28 230 0 165 1 172 27 225 33 67
80 117 122 129 58 17 129 12 176 -11z"/>
<path d="M7800 2570 c0 -5 11 -10 24 -10 13 0 34 -9 47 -19 l24 -19 0 -357 0
-357 -24 -19 c-13 -10 -34 -19 -47 -19 -13 0 -24 -4 -24 -10 0 -6 70 -10 190
-10 120 0 190 4 190 10 0 6 -9 10 -21 10 -32 0 -56 17 -66 47 -6 16 -10 94
-11 176 l-1 147 37 0 c79 0 115 -41 228 -262 l65 -128 134 0 c83 0 135 4 135
10 0 6 -6 10 -14 10 -31 0 -74 53 -156 189 -47 78 -102 159 -123 180 l-38 39
46 22 c100 48 137 160 86 260 -22 45 -97 95 -161 109 -66 14 -520 15 -520 1z
m411 -51 c73 -22 112 -91 103 -181 -8 -90 -80 -148 -180 -148 l-52 0 0 170 0
170 45 0 c25 0 63 -5 84 -11z"/>
<path d="M8906 2566 c-95 -35 -166 -134 -166 -232 0 -106 35 -150 220 -274
131 -88 156 -118 146 -178 -6 -42 -30 -70 -73 -88 -105 -45 -234 23 -273 142
-20 61 -30 36 -30 -76 0 -60 2 -110 5 -110 3 0 14 5 24 12 14 8 39 7 110 -7
219 -42 373 46 373 215 0 105 -35 148 -227 278 -136 93 -158 116 -157 175 2
104 147 144 238 65 19 -17 47 -54 62 -82 l27 -51 3 109 c1 60 1 111 -2 113 -3
3 -14 -2 -26 -10 -17 -11 -29 -12 -58 -4 -62 17 -154 18 -196 3z"/>
</g>
</svg>
